<?xml version="1.0" encoding="utf-8"?>
<!-- Generator: Adobe Illustrator 21.0.0, SVG Export Plug-In . SVG Version: 6.00 Build 0)  -->
<svg version="1.1" id="Layer_1" xmlns="http://www.w3.org/2000/svg" xmlns:xlink="http://www.w3.org/1999/xlink" x="0px" y="0px"
	 viewBox="0 0 1280 800" style="enable-background:new 0 0 1280 800;" xml:space="preserve">
<style type="text/css">
	.st0{fill:#00C5C5;}
	.st1{fill:#008989;}
</style>
<path id="Layer_4" class="st0" d="M604.8,85.6c0.9-0.1,1.9-0.2,2.8-0.3c173.7-16.2,328.2,112,344.4,285.7
	c16.2,173.7-112,328.2-285.7,344.4c-173.7,16.2-328.2-112-344.4-285.7l-37.4,3.5c4.4,47.6,18,92.9,40.5,134.6
	c21.7,40.3,50.6,75.6,85.9,105c35.4,29.4,75.4,51.3,119,65.1c45.2,14.3,92.2,19.4,139.8,14.9c47.6-4.4,92.9-18,134.6-40.5
	c40.3-21.7,75.6-50.6,105-85.9c29.3-35.4,51.3-75.4,65.1-119c14.3-45.2,19.4-92.2,14.9-139.8c-4.4-47.6-18-92.9-40.5-134.6
	c-21.7-40.3-50.6-75.6-85.9-105c-35.4-29.3-75.4-51.3-119-65.1C698.7,48.6,651.7,43.5,604.1,48c-0.9,0.1-1.9,0.2-2.8,0.3L604.8,85.6
	z">
<animateTransform  accumulate="none" additive="replace" attributeName="transform" attributeType="XML" calcMode="linear" dur="5s" fill="remove" from="0 640 400" repeatCount="indefinite" restart="always" to="360 640 400" type="rotate">
		</animateTransform>
</path>
<path id="Layer_3" class="st1" d="M355.4,391.3c0-0.7,0-1.3,0.1-2C361.6,234.1,492.9,112.9,648,119
	c155.2,6.1,276.4,137.4,270.3,292.5c-6.1,155.2-137.3,276.4-292.5,270.3l-0.5,12.1c39.6,1.6,78.4-4.7,115.2-18.6
	c35.5-13.4,67.8-33.3,95.8-59.2s50.4-56.4,66.6-90.8c16.7-35.6,26-73.7,27.6-113.3c1.6-39.6-4.7-78.4-18.6-115.2
	c-13.4-35.5-33.3-67.8-59.2-95.8c-25.9-28-56.4-50.4-90.8-66.6c-35.6-16.7-73.7-26-113.3-27.6c-39.6-1.6-78.4,4.7-115.2,18.6
	c-35.5,13.4-67.8,33.3-95.8,59.2c-28,25.9-50.4,56.4-66.6,90.8c-16.7,35.6-26,73.7-27.6,113.3c0,0.7,0,1.3-0.1,2L355.4,391.3z">
<animateTransform  accumulate="none" additive="replace" attributeName="transform" attributeType="XML" calcMode="linear" dur="10s" fill="remove" from="360 640 400" repeatCount="indefinite" restart="always" to="0 640 400" type="rotate">
		</animateTransform>
</path>
<path id="Layer_2" class="st0" d="M697.5,146.5c0.7,0.2,1.3,0.3,2,0.5c139.7,34.5,225.4,176.2,190.9,315.9
	c-34.5,139.7-176.2,225.4-315.9,190.9S349,477.6,383.5,337.8l-7.1-1.7c-17.2,69.6-6.2,141.7,30.8,203
	c37.1,61.3,95.8,104.6,165.3,121.7c69.6,17.2,141.7,6.2,203-30.8C837,593,880.2,534.2,897.4,464.7c17.2-69.6,6.2-141.7-30.8-203
	c-37.1-61.3-95.8-104.6-165.3-121.7c-0.7-0.2-1.3-0.3-2-0.5L697.5,146.5z">
<animateTransform  accumulate="none" additive="replace" attributeName="transform" attributeType="XML" calcMode="linear" dur="15s" fill="remove" from="0 640 400" repeatCount="indefinite" restart="always" to="360 640 400" type="rotate">
		</animateTransform>
</path>
<path id="Layer_1_1_" class="st0" d="M591.6,619.3c-0.7-0.1-1.3-0.3-2-0.4c-120.5-26-197.3-145.3-171.3-265.7
	c26-120.5,145.3-197.3,265.7-171.3c120.5,26,197.3,145.3,171.3,265.7l25.9,5.6c7.1-33,7.6-66.4,1.4-99.3c-6-31.8-18-61.7-35.6-89
	c-17.6-27.3-39.9-50.6-66.4-69.2c-27.4-19.3-58-32.6-91-39.8c-33-7.1-66.4-7.6-99.3-1.4c-31.8,6-61.7,18-89,35.6
	c-27.3,17.6-50.6,39.9-69.2,66.4c-19.3,27.4-32.6,58-39.8,91s-7.6,66.4-1.4,99.3c6,31.8,18,61.7,35.6,89
	c17.6,27.3,39.9,50.6,66.4,69.2c27.4,19.3,58,32.6,91,39.8c0.7,0.1,1.3,0.3,2,0.4L591.6,619.3z">
<animateTransform  accumulate="none" additive="replace" attributeName="transform" attributeType="XML" calcMode="linear" dur="7s" fill="remove" from="360 640 400" repeatCount="indefinite" restart="always" to="0 640 400" type="rotate">
		</animateTransform>
</path>
<g>
	<path class="st0" d="M484.6,518.7l5.9-17.9h8.9l6,17.9h-6.8l-1.1-3.2h-5.3l-1.1,3.2H484.6z M494.9,504.7l-2.6,7.1h4.9L494.9,504.7z
		"/>
	<path class="st0" d="M510.2,500.7l4.1,13.8l4.1-13.8h7.2l-6.4,17.9h-9.5l-6.3-17.9H510.2z"/>
	<path class="st0" d="M523.6,518.7l5.9-17.9h8.9l6,17.9h-6.8l-1.1-3.2h-5.3l-1.1,3.2H523.6z M534,504.7l-2.6,7.1h4.9L534,504.7z"/>
	<path class="st0" d="M544.1,518.7v-17.9h5.8v12.6h9.7v5.3H544.1z"/>
	<path class="st0" d="M558.7,518.7l5.9-17.9h8.9l6,17.9h-6.8l-1.1-3.2h-5.3l-1.1,3.2H558.7z M569,504.7l-2.6,7.1h4.9L569,504.7z"/>
	<path class="st0" d="M579.2,518.7v-17.9c5.6,0.4,9.3,2.7,11.2,6.7v-6.7h5.8v17.9h-5.8c-0.6-2.7-2.4-5-5.3-6.7v6.7H579.2z"/>
	<path class="st0" d="M609,513.3h5.6v5.3h-7.9c-1.9,0-3.7-0.3-5.3-1c-1.6-0.7-2.8-1.7-3.7-3.1c-0.9-1.4-1.4-3.1-1.4-5.1
		c0-1.4,0.3-2.7,0.8-3.8c0.5-1.1,1.3-2,2.3-2.8c1-0.7,2.1-1.3,3.3-1.6c1.2-0.4,2.6-0.5,4-0.5h4.9h3v5.3H609c-1.3,0-2.2,0-2.8,0.1
		c-0.6,0.1-1.1,0.2-1.6,0.4c-0.5,0.2-0.9,0.5-1.3,0.9c-0.4,0.4-0.6,1.2-0.6,2.3c0,1.1,0.3,1.8,0.6,2.3c0.4,0.5,0.8,0.8,1.4,0.9
		c0.5,0.1,1.1,0.3,1.7,0.3C607,513.3,607.9,513.3,609,513.3z"/>
	<path class="st0" d="M625.7,506.9v-6.2h5.8v17.9h-5.8v-6.5H621v6.5h-5.8v-17.9h5.8v6.2H625.7z"/>
	<path class="st0" d="M632.7,518.7v-17.9h15.4v5.3h-9.5v1.2h4v3.5h-4v2.6h11v5.3H632.7z"/>
	<path class="st0" d="M673.5,513.3h5.6v5.3h-7.9c-1.9,0-3.7-0.3-5.3-1c-1.6-0.7-2.8-1.7-3.7-3.1c-0.9-1.4-1.4-3.1-1.4-5.1
		c0-1.4,0.3-2.7,0.8-3.8c0.5-1.1,1.3-2,2.3-2.8c1-0.7,2.1-1.3,3.3-1.6c1.2-0.4,2.6-0.5,4-0.5h4.9h3v5.3h-5.6c-1.3,0-2.2,0-2.8,0.1
		c-0.6,0.1-1.1,0.2-1.6,0.4c-0.5,0.2-0.9,0.5-1.3,0.9c-0.4,0.4-0.6,1.2-0.6,2.3c0,1.1,0.3,1.8,0.6,2.3c0.4,0.5,0.8,0.8,1.4,0.9
		c0.5,0.1,1.1,0.3,1.7,0.3C671.5,513.3,672.3,513.3,673.5,513.3z"/>
	<path class="st0" d="M699.8,509.8c0,2-0.4,3.6-1.2,5c-0.8,1.4-2,2.4-3.6,3.1c-1.6,0.7-3.4,1-5.6,1c-2.2,0-4-0.3-5.5-1
		c-1.5-0.7-2.7-1.7-3.5-3.1c-0.8-1.4-1.2-3-1.2-5c0-1.5,0.2-2.8,0.7-4c0.5-1.1,1.1-2.1,2-2.9c0.9-0.8,2-1.4,3.2-1.8
		c1.3-0.4,2.7-0.6,4.3-0.6c2.1,0,4,0.4,5.5,1.1c1.6,0.7,2.7,1.7,3.6,3.1C699.4,506.2,699.8,507.8,699.8,509.8z M685.6,509.8
		c0,1.1,0.3,2.2,0.8,3c0.5,0.9,1.5,1.3,3.1,1.3c1.2,0,2.1-0.2,2.6-0.7c0.6-0.4,0.9-1,1.1-1.5c0.1-0.6,0.2-1.3,0.3-2.1
		c0-1.1-0.3-2.2-0.8-3c-0.5-0.9-1.6-1.3-3.2-1.3C686.8,505.6,685.6,507,685.6,509.8z"/>
	<path class="st0" d="M700.4,518.7v-17.9h5.8l3.9,5.4l3.9-5.4h5.8v17.9H714v-5.1l-3.7,5.1H710l-3.8-5.1l0,5.1H700.4z"/>
	<path class="st0" d="M721.1,518.7v-17.9h11.7c1.4,0.1,2.6,0.5,3.6,1.2c0.9,0.7,1.6,1.6,2,2.8c0.4,1.4,0.5,2.5,0.4,3.2
		c-0.1,0.7-0.2,1.4-0.4,2c-0.2,0.6-0.7,1.4-1.6,2.2c-0.9,0.8-2.1,1.4-3.6,1.6h-5.6l0,4.8H721.1z M727.6,505.6v3h4.2
		c1.2-0.4,1.8-0.9,1.9-1.5c-0.1-0.7-0.7-1.2-1.9-1.5H727.6z"/>
	<path class="st0" d="M738,518.7l5.9-17.9h8.9l6,17.9H752l-1.1-3.2h-5.3l-1.1,3.2H738z M748.4,504.7l-2.6,7.1h4.9L748.4,504.7z"/>
	<path class="st0" d="M758.5,518.7v-17.9c5.6,0.4,9.3,2.7,11.2,6.7v-6.7h5.8v17.9h-5.8c-0.6-2.7-2.4-5-5.3-6.7v6.7H758.5z"/>
	<path class="st0" d="M795.4,500.7l-7.8,11.3v6.6h-5.9v-6.6l-7.8-11.3h7.1l3.6,5.5l3.7-5.5H795.4z"/>
</g>
<g>
	<path class="st0" d="M501.6,484.2l78.3-237.9H698l79.6,237.9h-90l-15-42.8H602l-15,42.8H501.6z M639.2,299l-34.1,94.3h65.6
		L639.2,299z"/>
</g>
</svg>
